<?xml version="1.0" encoding="UTF-8"?>
<svg id="Layer_1" data-name="Layer 1" xmlns="http://www.w3.org/2000/svg" viewBox="0 0 613 499.86">
  <defs>
    <style>
      .cls-1 {
        fill: #63a2ae;
      }

      .cls-2 {
        fill: #fff;
      }

      .cls-3 {
        fill: #f6e088;
      }

      .cls-4 {
        fill: #a4e869;
      }

      .cls-4, .cls-5, .cls-6, .cls-7, .cls-8, .cls-9 {
        stroke: #000;
        stroke-miterlimit: 10;
        stroke-width: 4px;
      }

      .cls-5 {
        fill: #ed8f20;
      }

      .cls-10 {
        fill: #e63a2a;
      }

      .cls-11 {
        fill: #491e17;
      }

      .cls-12 {
        fill: #ef8829;
      }

      .cls-13 {
        fill: #b9a550;
      }

      .cls-14 {
        fill: #f7931e;
      }

      .cls-6 {
        fill: #dd7017;
      }

      .cls-15 {
        fill: #fdd44b;
      }

      .cls-7 {
        fill: #88c057;
      }

      .cls-16 {
        fill: #3f2d20;
      }

      .cls-17 {
        fill: #34150c;
      }

      .cls-8 {
        fill: #f2681c;
      }

      .cls-18 {
        fill: #fbb03b;
      }

      .cls-9 {
        fill: #659c35;
      }
    </style>
  </defs>
  <g>
    <g>
      <path class="cls-3" d="M522.73,193.57l5.97,2.33c7.68-19.7-2.07-41.89-21.76-49.57-19.7-7.68-41.89,2.07-49.57,21.76l5.36,2.09-5.49,14.1-5.57-2.17-39.49,101.3,70.81,27.6,39.49-101.3-5.25-2.04,5.49-14.1Z"/>
      <path class="cls-1" d="M506.48,146.61c3.83,1.49,7.29,3.55,10.3,6.03l5.46-14.02-21.97-8.56-5.46,14.02c3.9,.21,7.83,1.04,11.66,2.53Z"/>
      <g>
        <path class="cls-11" d="M517.06,181.18l5.35-.18c-.4-11.99-7.87-22.56-19.03-26.91l-1.94,4.98c9.17,3.57,15.3,12.25,15.63,22.1Z"/>
        <path class="cls-11" d="M527.11,198.3l2.46,.96,.97-2.49c6.26-16.07,1.53-33.75-10.52-44.71l5.74-14.72-27.21-10.61-5.75,14.76c-16.29-.08-31.76,9.78-38.04,25.89l-.92,2.35,2.46,.96,2.78,1.09-3.58,9.18-5.25-2.04-41.4,106.22,75.73,29.52,41.53-106.55-5.25-2.04,3.45-8.85,2.78,1.09h0Zm-28.78-56.48l3.21-8.25,17.05,6.65-3.21,8.25c-.18-.12-.36-.24-.54-.36-.1-.07-.21-.14-.31-.21-.16-.1-.33-.21-.49-.31-.15-.09-.29-.18-.44-.27-.15-.09-.3-.18-.46-.27-.16-.1-.33-.19-.49-.29-.15-.08-.29-.17-.44-.25-.18-.1-.35-.19-.53-.29-.14-.08-.29-.15-.43-.23-.19-.1-.37-.19-.56-.29-.14-.07-.28-.14-.42-.21-.2-.1-.4-.19-.6-.29-.13-.06-.26-.12-.39-.18-.22-.1-.45-.2-.68-.3-.11-.05-.22-.1-.33-.14-.34-.14-.68-.28-1.03-.42s-.69-.26-1.04-.39c-.11-.04-.23-.08-.34-.12-.23-.08-.47-.16-.7-.24-.14-.05-.27-.09-.41-.13-.21-.07-.42-.13-.64-.2-.15-.04-.3-.09-.45-.13-.2-.06-.4-.12-.61-.17-.16-.04-.31-.08-.47-.12-.19-.05-.39-.1-.58-.15-.16-.04-.33-.08-.49-.12-.19-.04-.37-.08-.56-.12-.17-.04-.35-.07-.52-.11-.17-.03-.34-.07-.51-.1-.19-.04-.38-.07-.57-.1-.12-.02-.24-.04-.37-.06-.21-.03-.43-.07-.65-.1Zm-77.14,126.22l4.86-12.46,65.57,25.56-4.86,12.46-65.57-25.56Zm6.77-17.38l4.86-12.46,65.57,25.56-4.86,12.46-65.57-25.56Zm6.9-17.7l4.86-12.46,65.57,25.56-4.86,12.46-65.57-25.56Zm6.77-17.38l4.86-12.46,65.57,25.56-4.86,12.46-65.57-25.56Zm-25.81,66.22l3.45-8.85,65.57,25.56-3.45,8.85-65.57-25.56Zm103.01-70.5l-4.86,12.46-65.57-25.56,4.86-12.46,2.81,1.1,2.49,.97,54.97,21.43,2.49,.97,2.81,1.1Zm-3.2-7.29l-55.08-21.47,3.45-8.85,13.44,5.24,1.92-4.92-13.07-5.1-5.15-2.01c6.25-13.04,19.84-20.61,33.78-19.65,.19,.01,.39,.03,.58,.04,.19,.02,.38,.04,.57,.05,.3,.03,.59,.06,.89,.1,.16,.02,.32,.04,.48,.07,.27,.04,.54,.08,.81,.13,.12,.02,.24,.04,.37,.06,.36,.06,.71,.13,1.07,.21,.11,.02,.23,.05,.34,.07,.37,.08,.74,.17,1.11,.27,.1,.03,.19,.05,.29,.07,.26,.06,.52,.12,.77,.21,.13,.05,.26,.08,.39,.12,.38,.12,.76,.24,1.13,.37,.08,.03,.16,.06,.24,.08,.39,.14,.78,.28,1.16,.43s.77,.31,1.14,.47c.08,.03,.16,.07,.23,.1,.36,.16,.72,.32,1.08,.5,.08,.04,.17,.08,.25,.12,.31,.15,.62,.31,.93,.47,.06,.03,.11,.06,.17,.09,.34,.18,.67,.37,1,.56,.1,.06,.2,.12,.3,.18,.31,.19,.62,.38,.93,.57,.1,.07,.21,.13,.31,.2,.23,.15,.45,.3,.68,.45,.13,.09,.27,.18,.4,.28,.24,.17,.48,.35,.72,.53,.15,.12,.31,.23,.46,.35,.15,.12,.31,.24,.46,.36,10.92,8.72,15.8,23.5,11.57,37.33l-5.15-2.01-34.71-13.53-1.92,4.92,35.08,13.67-3.45,8.85Z"/>
      </g>
    </g>
    <g>
      <path class="cls-10" d="M409.23,213.3c.74,5.31,5.84,8.08,10.5,8.08,.12,0,.24,0,.36,0,5.16-.15,10.64-2.86,15.41-7.63,4.77-4.77,7.49-10.25,7.63-15.41,.14-4.82-2.59-10.1-8.08-10.86-.43-.06-.87-.09-1.31-.09-4.73,0-8.67,3.42-9.17,7.96-.25,2.27-.94,3.82-2.31,5.18-1.37,1.37-2.92,2.06-5.18,2.31-2.36,.26-4.48,1.46-5.97,3.37-1.56,2-2.25,4.59-1.9,7.11Z"/>
      <path class="cls-2" d="M465.03,233.28v-57.94h-77.84v57.94h77.84Zm-48.34-34.17c1.61-.18,2.31-.59,2.95-1.24s1.06-1.34,1.24-2.95c.71-6.43,6.24-11.28,12.88-11.28,.61,0,1.22,.04,1.82,.13,3.38,.47,6.38,2.3,8.45,5.14,1.93,2.66,2.94,6.04,2.84,9.52-.18,6.12-3.27,12.49-8.72,17.94s-11.82,8.55-17.94,8.72c-.16,0-.31,0-.47,0-7.31,0-13.28-4.75-14.2-11.3-.49-3.51,.48-7.12,2.65-9.91,2.12-2.72,5.14-4.42,8.5-4.79Z"/>
      <path class="cls-13" d="M392.79,254.17h-5.6v4.97h77.84v-4.97h-64.63c-.95,0-1.81-.68-1.92-1.63-.14-1.13,.74-2.1,1.85-2.1h64.7v-4.72h-12.98c-.95,0-1.81-.68-1.92-1.63-.14-1.13,.74-2.1,1.85-2.1h13.06v-4.97h-77.84v4.97h57.17c.95,0,1.81,.68,1.92,1.63,.14,1.13-.74,2.1-1.85,2.1h-57.24v4.72h5.52c.95,0,1.81,.68,1.92,1.63,.14,1.13-.74,2.1-1.85,2.1Z"/>
      <rect class="cls-13" x="387.19" y="149.73" width="77.84" height="4.97"/>
      <path class="cls-13" d="M392.79,166.88h-5.59v4.97h77.84v-4.97h-64.63c-.95,0-1.81-.68-1.92-1.63-.14-1.13,.74-2.1,1.85-2.1h64.7v-4.97h-77.84v4.97h5.52c.95,0,1.81,.68,1.92,1.63,.14,1.13-.74,2.1-1.85,2.1Z"/>
      <path class="cls-17" d="M405.53,213.81c.91,6.55,6.88,11.3,14.2,11.3,.16,0,.31,0,.47,0,6.12-.18,12.49-3.27,17.94-8.72s8.55-11.82,8.72-17.94c.1-3.48-.91-6.86-2.84-9.52-2.06-2.84-5.07-4.67-8.45-5.14-.6-.08-1.22-.13-1.82-.13-6.64,0-12.17,4.85-12.88,11.28-.18,1.61-.59,2.31-1.24,2.95-.65,.65-1.34,1.06-2.95,1.24-3.37,.37-6.39,2.07-8.5,4.79-2.17,2.79-3.14,6.4-2.65,9.91Zm11.56-10.99c2.27-.25,3.82-.94,5.18-2.31,1.37-1.37,2.06-2.92,2.31-5.18,.5-4.54,4.44-7.96,9.17-7.96,.43,0,.87,.03,1.31,.09,5.48,.76,8.21,6.04,8.08,10.86-.15,5.16-2.86,10.64-7.63,15.41-4.77,4.77-10.25,7.49-15.41,7.63-.12,0-.24,0-.36,0-4.66,0-9.76-2.78-10.5-8.08-.35-2.51,.34-5.1,1.9-7.11,1.49-1.92,3.61-3.11,5.97-3.37Z"/>
      <path class="cls-17" d="M470.38,259.14h-1.62v-5.07c.59-.31,1-.93,1-1.65s-.4-1.34-1-1.65v-5.28c.59-.31,1-.93,1-1.65s-.4-1.34-1-1.65v-75.53c.59-.31,1-.93,1-1.65s-.4-1.34-1-1.65v-5.28c.59-.31,1-.93,1-1.65s-.4-1.34-1-1.65v-5.07h1.72c.64,0,1.24-.35,1.52-.92,.71-1.41-.3-2.81-1.63-2.81h-88.64c-.64,0-1.24,.35-1.52,.92-.71,1.41,.3,2.81,1.63,2.81h1.62v5.07c-.59,.31-1,.93-1,1.65s.4,1.34,1,1.65v5.28c-.59,.31-1,.93-1,1.65s.4,1.34,1,1.65v75.53c-.59,.31-1,.93-1,1.65s.4,1.34,1,1.65v5.28c-.59,.31-1,.93-1,1.65s.4,1.34,1,1.65v5.07h-1.72c-.64,0-1.24,.35-1.52,.92-.71,1.41,.3,2.81,1.63,2.81h88.64c.64,0,1.24-.35,1.52-.92,.71-1.41-.3-2.81-1.63-2.81Zm-5.35-109.42v4.97h-77.84v-4.97h77.84Zm-72.24,13.43h-5.6v-4.97h77.84v4.97h-64.63c-.95,0-1.81,.68-1.92,1.63-.14,1.13,.74,2.1,1.85,2.1h64.7v4.97h-77.84v-4.97h5.52c.95,0,1.81-.68,1.92-1.63,.14-1.13-.74-2.1-1.85-2.1Zm72.24,12.19v57.94h-77.84v-57.94h77.84Zm-72.24,75.1h-5.6v-4.72h57.17c.95,0,1.81-.68,1.92-1.63,.14-1.13-.74-2.1-1.85-2.1h-57.24v-4.97h77.84v4.97h-12.98c-.95,0-1.81,.68-1.92,1.63-.14,1.13,.74,2.1,1.85,2.1h13.06v4.72h-64.63c-.95,0-1.81,.68-1.92,1.63-.14,1.13,.74,2.1,1.85,2.1h64.7v4.97h-77.84v-4.97h5.52c.95,0,1.81-.68,1.92-1.63,.14-1.13-.74-2.1-1.85-2.1Z"/>
    </g>
    <g>
      <path class="cls-12" d="M389.4,283.22c.28-1.45-.03-2.93-.86-4.15-.83-1.22-2.09-2.05-3.54-2.33-1.45-.28-2.93,.03-4.15,.86l-11.13,7.56c.96,3.86,2.01,7.6,3.15,11.18l14.21-9.58c1.21-.82,2.04-2.08,2.32-3.53Z"/>
      <path class="cls-12" d="M385.36,232.91c-.83-1.22-2.09-2.05-3.54-2.33-1.45-.28-2.93,.03-4.15,.86l-14.62,9.93c0,.14,.02,.27,.03,.41,.28,4.12,.66,8.19,1.11,12.2l19.7-13.38c2.52-1.72,3.18-5.17,1.47-7.69Z"/>
      <path class="cls-12" d="M362.95,206.51l17.74-12.07c1.23-.83,2.05-2.09,2.33-3.54,.28-1.45-.03-2.93-.86-4.15-1.71-2.53-5.16-3.18-7.69-1.47l-10.07,6.8c-.64,4.64-1.13,9.46-1.46,14.43Z"/>
      <g>
        <path class="cls-15" d="M371.44,162.87c.28-.73,.56-1.44,.85-2.13-.29,.69-.57,1.4-.85,2.13Z"/>
        <path class="cls-15" d="M372.8,159.51c.19-.43,.38-.85,.58-1.27-.19,.42-.39,.84-.58,1.27Z"/>
        <path class="cls-15" d="M373.82,157.3c.2-.42,.41-.83,.61-1.24-.21,.4-.41,.82-.61,1.24Z"/>
        <path class="cls-15" d="M410.69,333.58c.12-.12,.23-.24,.35-.37-.11,.13-.23,.25-.35,.37Z"/>
        <path class="cls-15" d="M369.58,168.22c.15-.47,.3-.92,.45-1.38-.15,.46-.3,.91-.45,1.38Z"/>
        <path class="cls-15" d="M370.49,165.49c.16-.46,.32-.91,.48-1.36-.16,.45-.32,.9-.48,1.36Z"/>
        <path class="cls-15" d="M377.55,150.78c.25-.36,.5-.71,.75-1.05-.25,.34-.5,.69-.75,1.05Z"/>
        <path class="cls-15" d="M381.37,146.25c-.92,.87-1.83,1.87-2.71,3.01,.88-1.14,1.79-2.15,2.71-3.01Z"/>
        <path class="cls-15" d="M374.86,155.26c.76-1.42,1.53-2.74,2.33-3.94-.8,1.2-1.58,2.52-2.33,3.94Z"/>
        <path class="cls-15" d="M382.8,145.04c.29-.22,.59-.44,.88-.64-.3,.2-.59,.42-.88,.64Z"/>
        <path class="cls-15" d="M381.61,146.03c.29-.26,.57-.5,.86-.73-.29,.23-.58,.47-.86,.73Z"/>
        <path class="cls-15" d="M403.89,336.52c-.11,.01-.21,.02-.32,.03,.11,0,.21-.02,.32-.03Z"/>
        <path class="cls-15" d="M368.76,170.95c.1-.35,.2-.68,.31-1.02-.1,.34-.21,.67-.31,1.01-.95,3.31-1.8,6.81-2.54,10.46h0c.74-3.65,1.59-7.14,2.54-10.45Z"/>
        <path class="cls-15" d="M411.45,332.68c.17-.23,.34-.48,.51-.74-.17,.26-.34,.51-.51,.74Z"/>
        <path class="cls-15" d="M413.23,329.54c-.1,.23-.2,.45-.3,.66,.1-.21,.2-.44,.3-.66Z"/>
        <path class="cls-15" d="M412.32,331.38c.11-.18,.21-.38,.31-.58-.1,.2-.2,.39-.31,.58Z"/>
        <path class="cls-15" d="M410.33,333.96c-.12,.11-.24,.22-.37,.32,.12-.1,.25-.21,.37-.32Z"/>
        <path class="cls-15" d="M383.71,144.38c-2.89,4.69-5.5,10.9-7.66,18.44-.95,3.31-2.75,10.99-3.49,14.65,2.37-.97,4.97-1.24,7.55-.75,3.51,.67,6.54,2.67,8.55,5.62,1.35,1.98,2.12,4.24,2.28,6.57,.08,1.14,.01,2.3-.21,3.45-.67,3.51-2.67,6.54-5.62,8.55l-22.6,15.37,7.23-4.92c-.06,4.18,.14,11.49,.29,15.79l-7.45,5.06,10.69-7.26c2.95-2.01,6.51-2.74,10.02-2.07,3.51,.67,6.54,2.67,8.55,5.62,1.35,1.98,2.12,4.24,2.28,6.57,.08,1.14,.01,2.3-.21,3.45-.67,3.51-2.67,6.54-5.62,8.55l-22.97,15.6,7.73-5.25c.62,3.89,1.93,10.46,2.7,14.17l.7-.47c2.96-2.01,6.51-2.74,10.02-2.07,3.51,.67,6.54,2.67,8.55,5.62,1.35,1.98,2.12,4.24,2.28,6.57,.08,1.14,.01,2.3-.21,3.45-.67,3.51-2.67,6.54-5.62,8.55l-7.68,5.18c.63,1.57,1.27,3.11,1.93,4.6,7.43,16.74,16.23,26.03,24.16,25.48,1.42-.1,2.75-.25,3.98-.59,.53-1.51,1.02-3.27,1.45-5.38,2.89-14.09,2.82-40.11-.24-84.35-3.05-44.24-6.56-70.02-11.36-83.58-4.24-11.98-8.7-12.62-14.54-12.22-1.86,.13-3.7,.82-5.48,2Z"/>
        <path class="cls-15" d="M413.8,328.11c-.09,.26-.19,.5-.28,.74,.1-.24,.19-.48,.28-.74Z"/>
        <path class="cls-15" d="M404.91,336.38c-.13,.02-.25,.04-.38,.06,.13-.02,.25-.04,.38-.06Z"/>
        <path class="cls-15" d="M405.86,336.21c-.13,.03-.26,.05-.39,.08,.13-.02,.26-.05,.39-.08Z"/>
        <path class="cls-15" d="M406.77,335.98c-.12,.04-.24,.07-.37,.1,.12-.03,.25-.06,.37-.1Z"/>
        <path class="cls-15" d="M407.84,335.58c-.14,.06-.29,.12-.43,.17,.15-.05,.29-.11,.43-.17Z"/>
        <path class="cls-15" d="M408.77,335.11c-.12,.07-.24,.14-.36,.21,.12-.06,.24-.14,.36-.21Z"/>
        <path class="cls-15" d="M409.57,334.59c-.12,.09-.25,.18-.37,.27,.13-.08,.25-.17,.37-.27Z"/>
      </g>
      <path class="cls-16" d="M361.23,168.78c-5.74,19.99-7.86,46.1-5.97,73.53,1.89,27.43,7.58,53,16.01,72.01,8.97,20.22,20.28,30.92,31.86,30.12s17.05-6.67,19.86-20.34c3.04-14.82,3.01-41.48-.1-86.46-6.2-89.77-13.99-104.47-34.25-103.07-11.57,.8-21.31,12.95-27.41,34.21Zm42.49-14.18c4.8,13.56,8.3,39.34,11.36,83.58,3.05,44.24,3.13,70.26,.24,84.35-2.55,12.45-6.88,13.69-12.72,14.1-7.93,.55-16.73-8.74-24.16-25.48-1.01-2.28-1.98-4.67-2.91-7.15l15.95-10.76c2.95-2.01,4.95-5.04,5.62-8.55,.22-1.15,.29-2.31,.21-3.45-.16-2.33-.93-4.58-2.28-6.57-2.01-2.95-5.04-4.95-8.55-5.62s-7.07,.06-10.02,2.07l-8.6,5.85c-.97-4.62-1.81-9.4-2.53-14.29l22.97-15.6c2.95-2.01,4.95-5.04,5.62-8.55,.22-1.15,.29-2.31,.21-3.45-.16-2.33-.93-4.58-2.28-6.57-2.01-2.95-5.04-4.95-8.55-5.62s-7.07,.07-10.02,2.07l-10.69,7.26c-.19-5.41-.21-10.73-.08-15.93l22.6-15.37c2.95-2.01,4.95-5.04,5.62-8.55,.22-1.15,.29-2.31,.21-3.45-.16-2.33-.93-4.58-2.28-6.57-2.01-2.95-5.04-4.95-8.55-5.62-3.51-.67-7.07,.07-10.01,2.07l-3.87,2.62c.74-3.65,1.59-7.15,2.54-10.46,5.06-17.6,12.5-28.01,20.43-28.56,5.84-.4,10.3,.24,14.54,12.22Zm-21.55,32.14c.83,1.22,1.14,2.7,.86,4.15-.28,1.45-1.1,2.71-2.33,3.54l-17.74,12.07c.33-4.97,.82-9.79,1.46-14.43l10.07-6.8c2.52-1.71,5.97-1.06,7.69,1.47Zm-17.81,67.22c-.47-4.14-.85-8.35-1.14-12.61h0s14.51-9.86,14.51-9.86c.94-.64,2.04-1.04,3.18-1.03,1.9,0,3.58,.91,4.61,2.43,1.71,2.53,1.05,5.98-1.47,7.69l-19.7,13.38Zm8.51,42.38c-1.13-3.58-2.18-7.32-3.15-11.18l11.13-7.56c1.22-.83,2.7-1.14,4.15-.86,1.45,.28,2.71,1.1,3.54,2.33,.83,1.22,1.14,2.7,.86,4.15-.28,1.45-1.1,2.71-2.32,3.53l-14.21,9.58Z"/>
    </g>
    <g>
      <path class="cls-7" d="M531.21,187.31s21.92-22.68,44.54-5.31c0,0,5.67,3.8,3.67,9.48-1.97,5.58-9.52,6.58-14.51,2.6-4.5-3.59-13.93-7.13-33.71-6.77Z"/>
      <path class="cls-7" d="M531.21,187.31s8.86-30.13-15.76-39.68c0,0-8.42-4.22-13.93-.39-5.12,3.56-3.11,11.52,2.94,13.08,6.62,1.71,16.7,7.76,26.75,26.99Z"/>
      <path class="cls-7" d="M575.57,183.5s.19,.14,.45,.34c.41-.64,.8-1.31,1.11-2.05,2.87-6.87-1.87-10.28-1.87-10.28-18.52-16.14-43.18,13.67-43.18,13.67,1.5-.3,2.91-.55,4.28-.77,7.86-5.58,23.36-13.08,39.22-.91Z"/>
      <path class="cls-4" d="M515.45,147.63c18.99,7.37,18.06,26.97,16.64,35.55,.05,.17,.11,.32,.16,.49,0,0,13.52-36.16-8.23-42.97,0,0-7.27-3.43-13.15,1.92-1.01,.92-1.81,1.97-2.41,3.07,3.76,.32,6.99,1.94,6.99,1.94Z"/>
      <path class="cls-9" d="M554.97,142.79c-9.11-2.89-16.85,7.36-16.85,7.36-1.09,2.4-2,4.9-2.77,7.43,1.35,10.23-2.16,22.64-4.04,28.31,0,.72,0,1.34,0,1.79,3.02-3.5,11.96-13.18,22.07-17.82,2.15-2.46,4.13-5.06,5.75-7.74,8.64-14.34-4.16-19.34-4.16-19.34Z"/>
      <path class="cls-4" d="M531.21,187.31s21.92-22.68,44.54-5.31c0,0,5.67,3.8,3.67,9.48-1.97,5.58-9.52,6.58-14.51,2.6-4.5-3.59-13.93-7.13-33.71-6.77Z"/>
      <g>
        <path class="cls-8" d="M532.03,184.56c-.28,1.32-.5,2.09-.5,2.09,0,0,.83-.86,2.32-2.1-.6,0-1.19,0-1.82,.01Z"/>
        <path class="cls-5" d="M549.49,194.77c.21-2.73-.52-5.18-1.71-7.35-4.44-.58-9.79-.89-16.25-.77-3.31-6.34-6.62-11.22-9.81-15.01-3.03-.2-6.14,.28-8.9,2.22-8.65,6.08-34.21,78.34-36.3,101.67-.2,2.19,1.79,3.33,3.58,2.04,19.01-13.69,68.58-72.27,69.4-82.81Z"/>
      </g>
      <g>
        <path class="cls-6" d="M489.09,253.67c-1.62-.29-3.23-.74-4.81-1.35-1.14-.44-2.4,.13-2.84,1.27s.13,2.4,1.27,2.84c1.83,.7,3.71,1.23,5.6,1.57,.33,.06,.66,.04,.97-.04,.79-.22,1.43-.87,1.58-1.73,.21-1.19-.58-2.34-1.78-2.55Z"/>
        <path class="cls-6" d="M543.61,195.35c-4.79-.47-9.63-2.34-14.38-5.56-1.01-.68-2.37-.42-3.05,.59-.68,1.01-.42,2.37,.59,3.05,5.37,3.64,10.9,5.76,16.43,6.3,.27,.03,.54,0,.79-.07,.85-.23,1.52-.98,1.61-1.91,.12-1.21-.77-2.28-1.98-2.4Z"/>
        <g>
          <path class="cls-6" d="M504.18,188.2c.88-.01,1.74,.5,2.08,1.38,1.33,3.36,4.34,7.35,8.1,8.71,1.14,.41,1.73,1.67,1.32,2.82-.25,.7-.82,1.19-1.49,1.37-.42,.12-.88,.11-1.33-.05-5.06-1.83-8.65-6.63-10.36-10.49"/>
          <path class="cls-6" d="M512.86,202.42c.44,.16,.9,.17,1.33,.05,.67-.18,1.24-.67,1.49-1.37,.41-1.14-.18-2.4-1.32-2.82-3.75-1.36-6.77-5.35-8.1-8.71-.35-.87-1.2-1.39-2.08-1.38-.55,1.19-1.11,2.43-1.68,3.73,1.72,3.86,5.3,8.66,10.36,10.49Z"/>
        </g>
        <g>
          <path class="cls-6" d="M531.17,223.27c-4.19,.45-10.02-.22-14.11-3.59-.94-.77-1.07-2.16-.3-3.1,.77-.94,2.16-1.07,3.1-.3,3.08,2.53,8.05,3.1,11.62,2.53,.96-.15,1.84,.35,2.27,1.16"/>
          <path class="cls-6" d="M531.48,218.81c-3.57,.57-8.54,0-11.62-2.53-.94-.77-2.33-.64-3.1,.3-.77,.94-.64,2.32,.3,3.1,4.09,3.37,9.92,4.04,14.11,3.59,.88-1.11,1.74-2.21,2.57-3.29-.43-.81-1.32-1.32-2.27-1.16Z"/>
        </g>
        <g>
          <path class="cls-6" d="M493.36,215.01c.9-.03,1.77,.48,2.13,1.37,.83,2.11,2.71,4.61,5.02,5.45,1.14,.41,1.73,1.67,1.32,2.82-.25,.7-.82,1.19-1.49,1.37-.42,.12-.88,.11-1.33-.05-3.36-1.22-5.81-4.24-7.12-6.86"/>
          <path class="cls-6" d="M499.02,225.97c.44,.16,.9,.17,1.33,.05,.67-.18,1.24-.67,1.49-1.37,.41-1.14-.18-2.4-1.32-2.82-2.32-.84-4.19-3.34-5.02-5.45-.35-.89-1.22-1.4-2.13-1.37-.49,1.35-.98,2.72-1.47,4.1,1.31,2.62,3.76,5.64,7.12,6.86Z"/>
        </g>
        <g>
          <path class="cls-6" d="M509.96,248.39c-2.98,.41-7.39,0-10.46-2.53-.94-.77-1.07-2.16-.3-3.1,.77-.94,2.16-1.07,3.1-.3,1.9,1.56,5.01,1.9,7.25,1.55,1.2-.19,2.33,.63,2.52,1.82,.01,.07,0,.13,0,.2"/>
          <path class="cls-6" d="M509.54,244.02c-2.24,.36-5.35,.02-7.25-1.55-.94-.77-2.32-.64-3.1,.3-.77,.94-.64,2.32,.3,3.1,3.07,2.53,7.48,2.94,10.46,2.53,.7-.78,1.4-1.56,2.1-2.35,0-.07,.02-.13,0-.2-.19-1.2-1.32-2.02-2.52-1.83Z"/>
        </g>
      </g>
    </g>
    <g>
      <g>
        <polygon class="cls-14" points="282.49 495.36 354.43 210.54 362.37 210.54 385.71 250.98 408.36 211.75 431.87 252.46 455.53 211.48 478.77 251.72 496.63 220.77 514.5 251.72 538.28 210.54 548.37 210.54 608.68 495.36 282.49 495.36"/>
        <path d="M545.54,214.04l58.82,277.82H286.99l70.16-277.82h3.19l19.3,33.44,6.06,10.5,6.06-10.5,16.59-28.73,17.45,30.22,6.06,10.5,6.06-10.5,17.6-30.49,17.17,29.74,6.06,10.5,6.06-10.5,11.8-20.45,11.8,20.45,6.06,10.5,6.06-10.5,19.73-34.18h5.24m5.67-7h-14.96l-21.75,37.68-17.87-30.95-17.87,30.95-21.75-37.68h-2.96l-22.18,38.42-22.18-38.42h-2.65l-21.32,36.94-21.32-36.94h-12.69l-73.7,291.82h335l-61.79-291.82h0Z"/>
      </g>
      <rect class="cls-18" x="399.34" y="368.58" width="91.57" height="101.99"/>
      <polygon class="cls-18" points="445.27 260.75 399.34 340.3 491.19 340.3 445.27 260.75"/>
    </g>
  </g>
  <g>
    <g>
      <path class="cls-3" d="M328.74,89.77l8.03,3.13c10.31-26.46-2.77-56.27-29.23-66.58-26.46-10.31-56.27,2.78-66.58,29.23l7.2,2.81-7.38,18.94-7.49-2.92-53.04,136.08,95.12,37.08,53.04-136.08-7.05-2.75,7.38-18.94Z"/>
      <path class="cls-1" d="M306.91,26.69c5.15,2.01,9.79,4.77,13.84,8.1l7.34-18.83-29.51-11.5-7.34,18.83c5.24,.29,10.52,1.39,15.67,3.4Z"/>
      <g>
        <path class="cls-11" d="M321.12,73.12l7.18-.24c-.54-16.11-10.57-30.3-25.57-36.14l-2.61,6.7c12.31,4.8,20.55,16.45,20.99,29.69Z"/>
        <path class="cls-11" d="M334.63,96.12l3.31,1.29,1.3-3.34c8.41-21.58,2.06-45.34-14.13-60.06l7.71-19.77L296.26,0l-7.73,19.82c-21.89-.1-42.66,13.14-51.1,34.78l-1.23,3.15,3.31,1.29,3.74,1.46-4.81,12.33-7.05-2.75-55.62,142.68,101.73,39.65,55.79-143.12-7.05-2.75,4.63-11.89,3.74,1.46h0Zm-38.66-75.86l4.32-11.08,22.9,8.93-4.32,11.08c-.24-.16-.49-.32-.73-.48-.14-.09-.28-.19-.42-.28-.22-.14-.44-.28-.66-.41-.2-.12-.39-.25-.59-.37-.2-.12-.41-.24-.62-.37-.22-.13-.44-.26-.66-.38-.2-.11-.4-.22-.59-.33-.24-.13-.47-.26-.71-.39-.19-.1-.38-.2-.58-.3-.25-.13-.5-.26-.75-.38-.19-.09-.37-.19-.56-.28-.27-.13-.54-.26-.81-.38-.17-.08-.35-.16-.53-.24-.3-.14-.61-.27-.91-.4-.15-.06-.3-.13-.44-.19-.46-.19-.91-.38-1.38-.56s-.93-.35-1.39-.52c-.15-.05-.3-.11-.46-.16-.31-.11-.63-.22-.94-.32-.18-.06-.37-.12-.55-.18-.29-.09-.57-.18-.86-.27-.2-.06-.4-.12-.6-.17-.27-.08-.54-.16-.81-.23-.21-.06-.42-.11-.63-.17-.26-.07-.52-.13-.79-.2-.22-.05-.44-.11-.66-.16-.25-.06-.5-.11-.75-.16-.23-.05-.47-.1-.7-.15-.23-.05-.46-.09-.69-.13-.25-.05-.51-.1-.76-.14-.16-.03-.33-.05-.49-.08-.29-.05-.58-.1-.87-.14Zm-103.63,169.55l6.52-16.73,88.08,34.33-6.52,16.73-88.08-34.33Zm9.1-23.34l6.52-16.73,88.08,34.33-6.52,16.73-88.08-34.33Zm9.27-23.78l6.52-16.73,88.08,34.33-6.52,16.73-88.08-34.33Zm9.1-23.34l6.52-16.73,88.08,34.33-6.52,16.73-88.08-34.33Zm-34.67,88.96l4.63-11.89,88.08,34.33-4.63,11.89-88.08-34.33Zm138.37-94.7l-6.52,16.73-88.08-34.33,6.52-16.73,3.78,1.47,3.34,1.3,73.84,28.78,3.34,1.3,3.78,1.47Zm-4.3-9.79l-73.98-28.84,4.63-11.89,18.06,7.04,2.57-6.61-17.56-6.85-6.91-2.69c8.39-17.52,26.65-27.69,45.38-26.39,.26,.02,.52,.04,.78,.06,.26,.02,.51,.05,.77,.07,.4,.04,.8,.09,1.19,.14,.22,.03,.43,.06,.65,.09,.36,.05,.72,.11,1.08,.17,.16,.03,.33,.05,.49,.08,.48,.09,.96,.18,1.44,.28,.15,.03,.3,.07,.46,.1,.5,.11,1,.23,1.5,.36,.13,.03,.26,.07,.39,.1,.35,.08,.7,.16,1.04,.29,.18,.06,.35,.11,.53,.16,.51,.15,1.01,.32,1.52,.49,.11,.04,.22,.08,.32,.11,.52,.18,1.04,.37,1.56,.57s1.03,.41,1.54,.63c.11,.04,.21,.09,.32,.14,.49,.21,.97,.44,1.45,.67,.11,.05,.22,.11,.34,.17,.42,.2,.84,.42,1.25,.64,.07,.04,.15,.08,.22,.12,.45,.24,.9,.49,1.34,.75,.13,.08,.27,.16,.4,.24,.42,.25,.84,.5,1.25,.77,.14,.09,.28,.18,.42,.27,.31,.2,.61,.4,.91,.61,.18,.12,.36,.25,.54,.37,.33,.23,.65,.47,.97,.71,.21,.15,.41,.31,.62,.47,.21,.16,.41,.32,.62,.49,14.66,11.72,21.22,31.56,15.55,50.14l-6.91-2.69-46.63-18.18-2.57,6.61,47.12,18.37-4.63,11.89Z"/>
      </g>
    </g>
    <g>
      <path class="cls-10" d="M176.28,116.26c.99,7.13,7.85,10.86,14.11,10.86,.16,0,.32,0,.49,0,6.94-.2,14.29-3.84,20.7-10.25,6.41-6.41,10.06-13.77,10.25-20.7,.19-6.47-3.48-13.57-10.85-14.59-.58-.08-1.17-.12-1.76-.12-6.35,0-11.65,4.6-12.32,10.69-.34,3.04-1.26,5.13-3.1,6.96-1.84,1.84-3.92,2.76-6.96,3.1-3.17,.35-6.01,1.96-8.02,4.53-2.09,2.69-3.02,6.17-2.55,9.54Z"/>
      <path class="cls-2" d="M251.23,143.11V65.28h-104.56v77.83h104.56Zm-64.94-45.9c2.17-.24,3.1-.79,3.97-1.66s1.42-1.8,1.66-3.97c.95-8.64,8.39-15.15,17.3-15.15,.81,0,1.64,.06,2.45,.17,4.54,.63,8.57,3.09,11.35,6.91,2.6,3.58,3.95,8.12,3.82,12.79-.24,8.22-4.4,16.78-11.72,24.1s-15.88,11.48-24.1,11.72c-.21,0-.42,0-.63,0-9.82,0-17.84-6.38-19.07-15.17-.66-4.71,.64-9.56,3.56-13.31,2.84-3.65,6.9-5.94,11.42-6.44Z"/>
      <path class="cls-13" d="M154.19,171.17h-7.52v6.68h104.56v-6.68h-86.81c-1.28,0-2.43-.92-2.58-2.19-.19-1.52,1-2.82,2.49-2.82h86.91v-6.35h-17.44c-1.28,0-2.43-.92-2.58-2.19-.19-1.52,1-2.82,2.49-2.82h17.54v-6.68h-104.56v6.68h76.79c1.28,0,2.43,.92,2.58,2.19,.19,1.52-1,2.82-2.49,2.82h-76.88v6.35h7.42c1.28,0,2.43,.92,2.58,2.19,.19,1.52-1,2.82-2.49,2.82Z"/>
      <rect class="cls-13" x="146.68" y="30.87" width="104.56" height="6.68"/>
      <path class="cls-13" d="M154.19,53.92h-7.52v6.68h104.56v-6.68h-86.81c-1.28,0-2.43-.92-2.58-2.19-.19-1.52,1-2.82,2.49-2.82h86.91v-6.68h-104.56v6.68h7.42c1.28,0,2.43,.92,2.58,2.19,.19,1.52-1,2.82-2.49,2.82Z"/>
      <path class="cls-17" d="M171.31,116.96c1.23,8.79,9.25,15.17,19.07,15.17,.21,0,.42,0,.63,0,8.22-.24,16.78-4.4,24.1-11.72,7.32-7.32,11.48-15.88,11.72-24.1,.13-4.67-1.22-9.21-3.82-12.79-2.77-3.82-6.8-6.28-11.35-6.91-.81-.11-1.63-.17-2.45-.17-8.91,0-16.35,6.51-17.3,15.15-.24,2.17-.79,3.1-1.66,3.97-.87,.87-1.8,1.42-3.97,1.66-4.52,.5-8.58,2.78-11.42,6.44-2.92,3.75-4.22,8.6-3.56,13.31Zm15.53-14.77c3.04-.34,5.13-1.26,6.96-3.1,1.84-1.84,2.76-3.92,3.1-6.96,.67-6.09,5.97-10.69,12.32-10.69,.58,0,1.17,.04,1.76,.12,7.37,1.03,11.03,8.12,10.85,14.59-.2,6.94-3.84,14.29-10.25,20.7-6.41,6.41-13.77,10.06-20.7,10.25-.16,0-.32,0-.49,0-6.26,0-13.11-3.73-14.11-10.86-.47-3.38,.46-6.86,2.55-9.54,2-2.57,4.85-4.18,8.02-4.53Z"/>
      <path class="cls-17" d="M258.42,177.85h-2.17v-6.81c.8-.42,1.34-1.25,1.34-2.22s-.54-1.79-1.34-2.22v-7.1c.8-.42,1.34-1.25,1.34-2.22s-.54-1.79-1.34-2.22V53.63c.8-.42,1.34-1.25,1.34-2.22s-.54-1.79-1.34-2.22v-7.1c.8-.42,1.34-1.25,1.34-2.22s-.54-1.79-1.34-2.22v-6.81h2.32c.86,0,1.66-.47,2.05-1.23,.96-1.9-.4-3.78-2.19-3.78h-119.07c-.86,0-1.66,.47-2.05,1.23-.96,1.9,.4,3.78,2.19,3.78h2.17v6.81c-.8,.42-1.34,1.25-1.34,2.22s.54,1.79,1.34,2.22v7.1c-.8,.42-1.34,1.25-1.34,2.22s.54,1.79,1.34,2.22v101.45c-.8,.42-1.34,1.25-1.34,2.22s.54,1.79,1.34,2.22v7.1c-.8,.42-1.34,1.25-1.34,2.22s.54,1.79,1.34,2.22v6.81h-2.32c-.86,0-1.66,.47-2.05,1.23-.96,1.9,.4,3.78,2.19,3.78h119.07c.86,0,1.66-.47,2.05-1.23,.96-1.9-.4-3.78-2.19-3.78Zm-7.18-146.98v6.68h-104.56v-6.68h104.56Zm-97.04,18.04h-7.52v-6.68h104.56v6.68h-86.81c-1.28,0-2.43,.92-2.58,2.19-.19,1.52,1,2.82,2.49,2.82h86.91v6.68h-104.56v-6.68h7.42c1.28,0,2.43-.92,2.58-2.19,.19-1.52-1-2.82-2.49-2.82Zm97.04,16.37v77.83h-104.56V65.28h104.56Zm-97.04,100.88h-7.52v-6.35h76.79c1.28,0,2.43-.92,2.58-2.19,.19-1.52-1-2.82-2.49-2.82h-76.88v-6.68h104.56v6.68h-17.44c-1.28,0-2.43,.92-2.58,2.19-.19,1.52,1,2.82,2.49,2.82h17.54v6.35h-86.81c-1.28,0-2.43,.92-2.58,2.19-.19,1.52,1,2.82,2.49,2.82h86.91v6.68h-104.56v-6.68h7.42c1.28,0,2.43-.92,2.58-2.19,.19-1.52-1-2.82-2.49-2.82Z"/>
    </g>
    <g>
      <path class="cls-12" d="M149.65,210.2c.37-1.95-.04-3.93-1.15-5.57-1.12-1.64-2.8-2.75-4.76-3.13-1.95-.37-3.93,.04-5.57,1.15l-14.95,10.15c1.3,5.19,2.71,10.21,4.23,15.01l19.08-12.87c1.63-1.11,2.74-2.8,3.11-4.75Z"/>
      <path class="cls-12" d="M144.21,142.61c-1.12-1.64-2.8-2.75-4.76-3.13-1.95-.37-3.93,.04-5.57,1.15l-19.64,13.33c.01,.18,.02,.36,.03,.55,.38,5.53,.88,11,1.49,16.39l26.47-17.97c3.39-2.3,4.28-6.94,1.97-10.33Z"/>
      <path class="cls-12" d="M114.12,107.15l23.84-16.22c1.65-1.12,2.76-2.81,3.13-4.76,.37-1.95-.04-3.93-1.15-5.57-2.3-3.39-6.94-4.28-10.33-1.97l-13.53,9.14c-.86,6.23-1.51,12.71-1.96,19.38Z"/>
      <g>
        <path class="cls-15" d="M125.52,48.53c.37-.98,.75-1.93,1.14-2.86-.39,.93-.77,1.88-1.14,2.86Z"/>
        <path class="cls-15" d="M127.35,44.02c.25-.58,.51-1.14,.77-1.71-.26,.56-.52,1.12-.77,1.71Z"/>
        <path class="cls-15" d="M128.72,41.04c.27-.56,.54-1.12,.82-1.66-.28,.54-.55,1.1-.82,1.66Z"/>
        <path class="cls-15" d="M178.25,277.84c.16-.17,.32-.32,.47-.5-.15,.18-.31,.34-.47,.5Z"/>
        <path class="cls-15" d="M123.02,55.72c.2-.63,.4-1.24,.6-1.85-.2,.61-.4,1.22-.6,1.85Z"/>
        <path class="cls-15" d="M124.23,52.05c.21-.61,.43-1.23,.64-1.82-.22,.6-.43,1.21-.64,1.82Z"/>
        <path class="cls-15" d="M133.73,32.28c.33-.48,.67-.95,1.01-1.4-.34,.45-.68,.92-1.01,1.4Z"/>
        <path class="cls-15" d="M138.86,26.21c-1.24,1.16-2.45,2.51-3.64,4.04,1.19-1.53,2.4-2.88,3.64-4.04Z"/>
        <path class="cls-15" d="M130.11,38.3c1.01-1.91,2.06-3.68,3.14-5.29-1.07,1.61-2.12,3.38-3.14,5.29Z"/>
        <path class="cls-15" d="M140.77,24.58c.39-.3,.79-.6,1.19-.86-.4,.27-.79,.56-1.19,.86Z"/>
        <path class="cls-15" d="M139.17,25.91c.38-.35,.77-.67,1.16-.99-.39,.31-.77,.64-1.16,.99Z"/>
        <path class="cls-15" d="M169.11,281.78c-.14,.02-.28,.03-.42,.05,.14-.01,.28-.03,.42-.05Z"/>
        <path class="cls-15" d="M121.91,59.39c.13-.47,.27-.91,.41-1.37-.14,.46-.28,.89-.41,1.36-1.28,4.45-2.41,9.15-3.41,14.06h0c1-4.9,2.13-9.6,3.41-14.04Z"/>
        <path class="cls-15" d="M179.26,276.64c.23-.31,.46-.64,.69-.99-.23,.35-.45,.68-.69,.99Z"/>
        <path class="cls-15" d="M181.66,272.41c-.13,.31-.27,.61-.4,.89,.14-.29,.27-.59,.4-.89Z"/>
        <path class="cls-15" d="M180.43,274.88c.14-.24,.28-.51,.42-.77-.14,.26-.27,.53-.42,.77Z"/>
        <path class="cls-15" d="M177.75,278.35c-.16,.15-.33,.29-.49,.43,.17-.14,.33-.28,.49-.43Z"/>
        <path class="cls-15" d="M141.99,23.7c-3.88,6.3-7.38,14.65-10.29,24.77-1.28,4.45-3.7,14.77-4.69,19.68,3.18-1.3,6.68-1.67,10.14-1.01,4.71,.9,8.79,3.58,11.49,7.55,1.81,2.66,2.85,5.69,3.06,8.82,.11,1.53,.01,3.09-.28,4.64-.9,4.71-3.58,8.79-7.55,11.48l-30.35,20.65,9.71-6.61c-.08,5.61,.19,15.43,.39,21.21l-10,6.79,14.36-9.75c3.97-2.69,8.75-3.68,13.46-2.78,4.71,.9,8.79,3.58,11.49,7.55,1.81,2.66,2.85,5.69,3.06,8.82,.11,1.53,.01,3.09-.28,4.64-.9,4.71-3.58,8.79-7.55,11.48l-30.85,20.95,10.39-7.05c.83,5.23,2.59,14.05,3.63,19.04l.94-.64c3.97-2.69,8.75-3.68,13.46-2.78,4.71,.9,8.79,3.58,11.49,7.55,1.81,2.66,2.85,5.69,3.06,8.82,.11,1.53,.01,3.09-.28,4.64-.9,4.71-3.58,8.79-7.55,11.48l-10.31,6.96c.84,2.11,1.7,4.18,2.59,6.18,9.98,22.49,21.8,34.96,32.45,34.23,1.91-.13,3.69-.33,5.35-.8,.71-2.03,1.37-4.4,1.95-7.22,3.88-18.93,3.78-53.88-.32-113.31-4.1-59.43-8.81-94.06-15.25-112.28-5.69-16.09-11.69-16.95-19.53-16.41-2.5,.17-4.96,1.1-7.36,2.69Z"/>
        <path class="cls-15" d="M182.41,270.5c-.12,.34-.25,.67-.38,.99,.13-.32,.25-.65,.38-.99Z"/>
        <path class="cls-15" d="M170.48,281.61c-.17,.03-.34,.05-.51,.07,.17-.02,.34-.05,.51-.07Z"/>
        <path class="cls-15" d="M171.76,281.37c-.17,.04-.35,.07-.52,.1,.18-.03,.35-.07,.52-.1Z"/>
        <path class="cls-15" d="M172.97,281.06c-.16,.05-.33,.09-.49,.13,.16-.04,.33-.08,.49-.13Z"/>
        <path class="cls-15" d="M174.42,280.53c-.19,.08-.38,.16-.58,.23,.19-.07,.39-.15,.58-.23Z"/>
        <path class="cls-15" d="M175.66,279.9c-.16,.09-.32,.19-.49,.28,.16-.09,.32-.18,.49-.28Z"/>
        <path class="cls-15" d="M176.74,279.19c-.17,.12-.33,.24-.5,.36,.17-.11,.33-.23,.5-.36Z"/>
      </g>
      <path class="cls-16" d="M111.8,56.47c-7.71,26.85-10.56,61.93-8.01,98.78,2.54,36.84,10.18,71.2,21.51,96.74,12.05,27.16,27.25,41.53,42.79,40.46s22.91-8.96,26.67-27.32c4.08-19.9,4.04-55.72-.13-116.14C186.3,28.38,175.84,8.63,148.62,10.51c-15.54,1.07-28.62,17.39-36.83,45.95Zm57.08-19.05c6.45,18.22,11.15,52.84,15.25,112.28,4.1,59.43,4.2,94.38,.32,113.31-3.43,16.72-9.25,18.4-17.09,18.94-10.65,.74-22.47-11.74-32.45-34.23-1.36-3.07-2.67-6.27-3.91-9.6l21.43-14.46c3.97-2.69,6.65-6.77,7.55-11.48,.3-1.55,.39-3.11,.28-4.64-.22-3.13-1.26-6.16-3.06-8.82-2.69-3.97-6.77-6.65-11.48-7.55-4.71-.9-9.49,.09-13.46,2.78l-11.56,7.85c-1.3-6.21-2.43-12.63-3.4-19.2l30.85-20.95c3.97-2.69,6.65-6.77,7.55-11.48,.3-1.55,.39-3.11,.28-4.64-.22-3.13-1.26-6.16-3.06-8.82-2.69-3.97-6.77-6.65-11.48-7.55s-9.49,.09-13.46,2.78l-14.36,9.75c-.25-7.26-.28-14.41-.1-21.4l30.35-20.65c3.97-2.69,6.65-6.77,7.55-11.48,.3-1.55,.39-3.11,.28-4.64-.22-3.13-1.26-6.16-3.06-8.82-2.69-3.97-6.77-6.65-11.48-7.55-4.71-.9-9.49,.09-13.45,2.78l-5.2,3.51c1-4.91,2.13-9.6,3.41-14.06,6.79-23.64,16.79-37.63,27.44-38.36,7.85-.54,13.84,.32,19.53,16.41Zm-28.95,43.18c1.12,1.64,1.53,3.62,1.15,5.57-.37,1.95-1.48,3.64-3.13,4.76l-23.84,16.22c.45-6.68,1.1-13.16,1.96-19.38l13.53-9.14c3.39-2.3,8.03-1.42,10.33,1.98Zm-23.92,90.3c-.63-5.56-1.14-11.22-1.53-16.93h0s19.5-13.24,19.5-13.24c1.26-.86,2.75-1.39,4.27-1.39,2.55,.01,4.81,1.23,6.2,3.27,2.3,3.39,1.42,8.03-1.97,10.33l-26.47,17.97Zm11.44,56.92c-1.52-4.81-2.93-9.83-4.23-15.01l14.95-10.15c1.64-1.12,3.62-1.52,5.57-1.15,1.95,.37,3.64,1.48,4.76,3.13,1.12,1.64,1.53,3.62,1.15,5.57-.37,1.95-1.48,3.64-3.11,4.75l-19.08,12.87Z"/>
    </g>
    <g>
      <path class="cls-7" d="M340.13,81.36s29.45-30.47,59.83-7.14c0,0,7.62,5.11,4.93,12.74-2.65,7.5-12.79,8.84-19.49,3.49-6.04-4.82-18.71-9.57-45.28-9.09Z"/>
      <path class="cls-7" d="M340.13,81.36s11.9-40.47-21.17-53.3c0,0-11.31-5.67-18.71-.52-6.88,4.79-4.17,15.47,3.94,17.57,8.89,2.3,22.44,10.42,35.94,36.26Z"/>
      <path class="cls-7" d="M399.72,76.24s.26,.19,.6,.46c.55-.86,1.07-1.76,1.49-2.76,3.85-9.23-2.52-13.81-2.52-13.81-24.88-21.68-58,18.36-58,18.36,2.01-.4,3.91-.73,5.74-1.03,10.55-7.49,31.38-17.58,52.69-1.22Z"/>
      <path class="cls-4" d="M318.96,28.06c25.51,9.9,24.26,36.23,22.36,47.76,.07,.23,.15,.43,.22,.66,0,0,18.16-48.57-11.05-57.72,0,0-9.77-4.6-17.67,2.57-1.36,1.23-2.43,2.64-3.24,4.12,5.05,.43,9.38,2.6,9.38,2.6Z"/>
      <path class="cls-9" d="M372.04,21.55c-12.23-3.88-22.63,9.89-22.63,9.89-1.47,3.22-2.68,6.58-3.72,9.98,1.81,13.74-2.9,30.42-5.42,38.03,0,.96,0,1.81,0,2.41,4.06-4.7,16.06-17.7,29.65-23.94,2.89-3.31,5.55-6.8,7.72-10.4,11.61-19.26-5.59-25.98-5.59-25.98Z"/>
      <path class="cls-4" d="M340.13,81.36s29.45-30.47,59.83-7.14c0,0,7.62,5.11,4.93,12.74-2.65,7.5-12.79,8.84-19.49,3.49-6.04-4.82-18.71-9.57-45.28-9.09Z"/>
      <g>
        <path class="cls-8" d="M341.23,77.67c-.37,1.78-.68,2.81-.68,2.81,0,0,1.12-1.15,3.12-2.82-.8,0-1.6,0-2.45,.01Z"/>
        <path class="cls-5" d="M364.69,91.38c.28-3.67-.7-6.96-2.3-9.87-5.97-.78-13.14-1.19-21.83-1.03-4.45-8.51-8.89-15.07-13.18-20.16-4.07-.27-8.25,.38-11.95,2.98-11.62,8.16-45.96,105.24-48.77,136.58-.26,2.95,2.41,4.47,4.81,2.74,25.53-18.39,92.12-97.08,93.22-111.24Z"/>
      </g>
      <g>
        <path class="cls-6" d="M283.56,170.51c-2.17-.39-4.34-1-6.46-1.81-1.53-.59-3.23,.18-3.81,1.7s.18,3.23,1.7,3.81c2.46,.94,4.99,1.65,7.52,2.1,.45,.08,.89,.06,1.3-.06,1.06-.29,1.92-1.17,2.13-2.33,.29-1.6-.78-3.14-2.38-3.43Z"/>
        <path class="cls-6" d="M356.79,92.16c-6.44-.63-12.94-3.14-19.32-7.47-1.35-.92-3.19-.56-4.1,.79-.92,1.35-.56,3.19,.79,4.1,7.21,4.89,14.64,7.74,22.07,8.46,.37,.03,.73,0,1.07-.09,1.15-.31,2.04-1.31,2.16-2.57,.16-1.62-1.03-3.07-2.66-3.23Z"/>
        <g>
          <path class="cls-6" d="M303.82,82.55c1.19-.02,2.33,.67,2.8,1.85,1.78,4.51,5.84,9.88,10.88,11.69,1.53,.55,2.33,2.25,1.77,3.78-.34,.94-1.11,1.6-2,1.84-.57,.16-1.19,.14-1.78-.07-6.8-2.46-11.61-8.9-13.92-14.09"/>
          <path class="cls-6" d="M315.48,101.65c.6,.22,1.21,.23,1.78,.07,.89-.25,1.66-.91,2-1.84,.55-1.54-.24-3.23-1.77-3.78-5.04-1.82-9.09-7.19-10.88-11.69-.47-1.17-1.61-1.86-2.8-1.85-.74,1.6-1.49,3.26-2.26,5,2.3,5.19,7.12,11.64,13.92,14.09Z"/>
        </g>
        <g>
          <path class="cls-6" d="M340.08,129.67c-5.62,.6-13.46-.3-18.95-4.82-1.26-1.04-1.44-2.9-.4-4.16,1.03-1.26,2.9-1.44,4.16-.4,4.13,3.4,10.82,4.16,15.6,3.4,1.29-.21,2.47,.47,3.05,1.56"/>
          <path class="cls-6" d="M340.49,123.68c-4.79,.76-11.47,.01-15.6-3.4-1.26-1.04-3.13-.86-4.16,.4-1.04,1.26-.86,3.12,.4,4.16,5.49,4.52,13.33,5.43,18.95,4.82,1.18-1.5,2.33-2.97,3.46-4.43-.57-1.09-1.77-1.77-3.05-1.56Z"/>
        </g>
        <g>
          <path class="cls-6" d="M289.29,118.57c1.21-.04,2.38,.65,2.86,1.84,1.12,2.83,3.64,6.2,6.75,7.32,1.53,.55,2.33,2.25,1.77,3.78-.34,.94-1.11,1.6-2,1.84-.57,.16-1.19,.14-1.78-.07-4.51-1.63-7.81-5.7-9.56-9.22"/>
          <path class="cls-6" d="M296.89,133.28c.6,.22,1.21,.23,1.78,.07,.89-.25,1.66-.9,2-1.84,.55-1.53-.24-3.23-1.77-3.78-3.11-1.13-5.63-4.49-6.75-7.32-.47-1.2-1.64-1.89-2.86-1.84-.66,1.82-1.32,3.65-1.97,5.5,1.76,3.52,5.05,7.58,9.56,9.22Z"/>
        </g>
        <g>
          <path class="cls-6" d="M311.59,163.41c-4,.55-9.93,0-14.05-3.39-1.26-1.04-1.44-2.9-.4-4.16,1.04-1.26,2.9-1.44,4.16-.4,2.55,2.1,6.73,2.56,9.74,2.08,1.61-.26,3.12,.84,3.38,2.45,.02,.09-.01,.18,0,.27"/>
          <path class="cls-6" d="M311.03,157.53c-3.01,.48-7.19,.02-9.74-2.08-1.26-1.04-3.12-.86-4.16,.4-1.04,1.26-.86,3.12,.4,4.16,4.12,3.39,10.05,3.95,14.05,3.39,.94-1.04,1.88-2.1,2.82-3.16,0-.09,.02-.18,0-.27-.25-1.61-1.77-2.71-3.38-2.45Z"/>
        </g>
      </g>
    </g>
    <g>
      <g>
        <polygon class="cls-14" points="4.49 496.36 101.73 111.36 114.02 111.36 144.69 164.48 175.11 111.78 206.69 166.48 238.48 111.42 269.69 165.48 293.69 123.91 317.69 165.48 348.93 111.36 364.16 111.36 445.68 496.36 4.49 496.36"/>
        <path d="M361.33,114.86l80.04,378H8.99L104.45,114.86h7.55l26.62,46.12,6.06,10.5,6.06-10.5,24.36-42.19,25.52,44.19,6.06,10.5,6.06-10.5,25.73-44.56,25.15,43.56,6.06,10.5,6.06-10.5,17.94-31.07,17.94,31.07,6.06,10.5,6.06-10.5,27.2-47.12h10.38m5.67-7h-20.09l-29.22,50.62-24-41.57-24,41.57-29.22-50.62h-3.98l-29.8,51.62-29.8-51.62h-3.55l-28.65,49.62-28.65-49.62h-17.04L0,499.86H450L367,107.86h0Z"/>
      </g>
      <rect class="cls-18" x="163" y="324.86" width="123" height="137"/>
      <polygon class="cls-18" points="224.69 180.02 163 286.86 286.37 286.86 224.69 180.02"/>
    </g>
  </g>
</svg>